<?xml version="1.0" standalone="no"?>
<!DOCTYPE svg PUBLIC "-//W3C//DTD SVG 1.1//EN" "http://www.w3.org/Graphics/SVG/1.1/DTD/svg11.dtd">
<svg xmlns="http://www.w3.org/2000/svg">
<metadata>Generated by Fontastic.me</metadata>
<defs>
<font id="untitled-font-1" horiz-adv-x="512">
<font-face font-family="untitled-font-1" units-per-em="512" ascent="480" descent="-32"/>
<missing-glyph horiz-adv-x="512" />

<glyph unicode="&#97;" d="M294 12c12-8 26-12 41-12c19 0 38 8 51 21l25 25c20 21 20 53 0 73l-45 46c-10 10-23 15-37 15c-14 0-27-5-36-15l-10-10c-46 38-90 82-128 128l10 10c20 20 20 53 0 73l-46 45c-9 10-22 15-36 15c-14 0-27-5-37-15l-25-25c-24-24-28-63-9-92c74-111 171-208 282-282z m-261 362l26 25c6 7 15 10 24 10c9 0 18-3 24-10l46-45c13-14 13-36 0-49l-15-15c-3-4-4-8-1-12c42-51 90-99 141-141c4-3 9-2 12 1l15 15c6 6 15 10 24 10c9 0 18-4 25-10l45-46c14-13 14-35 0-49l-25-25c-10-10-24-16-39-16c-11 0-22 3-31 9c-109 73-205 169-278 278c-14 22-11 51 7 70z m478 133c-1 3-4 5-8 5l-139 0c-5 0-9-4-9-9c0-4 4-8 9-8l119 0l-199-199c-3-3-3-9 0-12c2-2 4-2 6-2c2 0 5 0 6 2l199 199l0-119c0-5 4-9 8-9c5 0 9 4 9 9l0 139c0 1 0 2 0 2c0 1 0 1-1 2z"/>
<glyph unicode="&#98;" d="M457 384l-34 0l-19 37l0 1c-12 17-26 26-41 26l-107 0c-15 0-30-9-41-26l-28-38l-59 0l0 11c0 17-16 32-33 32l-20 0c-17 0-32-15-32-32l0-12c-35-3-43-27-43-46l0-222c0-32 20-51 55-51l402 0c35 0 55 19 55 51l0 222c0 21-9 47-55 47z m-382 21l20 0c6 0 12-5 12-10l0-11l-43 0l1 11c0 5 5 10 10 10z m416-290c0-21-11-30-34-30l-402 0c-23 0-34 9-34 30l0 222c0 15 6 26 32 26l144 0l36 47c4 6 13 17 23 17l107 0c10 0 18-10 22-16l24-48l48 0c31 0 34-13 34-26z m-182 248c-70 0-128-58-128-128c0-71 58-128 128-128c71 0 128 57 128 128c0 70-57 128-128 128z m0-235c-58 0-106 48-106 107c0 58 48 106 106 106c59 0 107-48 107-106c0-59-48-107-107-107z m0 181c-41 0-74-33-74-74c0-42 33-75 74-75c42 0 75 33 75 75c0 41-33 74-75 74z m0-128c-29 0-53 24-53 54c0 29 24 53 53 53c30 0 54-24 54-53c0-30-24-54-54-54z m-224 160c-23 0-42-19-42-42c0-24 19-43 42-43c24 0 43 19 43 43c0 23-19 42-43 42z m0-64c-11 0-21 10-21 22c0 11 10 21 21 21c12 0 22-10 22-21c0-12-10-22-22-22z"/>
<glyph unicode="&#99;" d="M149 363l214 0l0 149l-214 0z m22 128l170 0l0-107l-170 0z m-22-299l214 0l0 149l-214 0z m22 128l170 0l0-107l-170 0z m-22-299l214 0l0 150l-214 0z m22 128l170 0l0-106l-170 0z m-128 363l21 0l0-512l-21 0z m405 0l21 0l0-512l-21 0z m-363-21l43 0l0-43l-43 0z m0-86l43 0l0-42l-43 0z m0-85l43 0l0-43l-43 0z m0-85l43 0l0-43l-43 0z m0-86l43 0l0-42l-43 0z m0-85l43 0l0-43l-43 0z m299 427l43 0l0-43l-43 0z m0-86l43 0l0-42l-43 0z m0-85l43 0l0-43l-43 0z m0-85l43 0l0-43l-43 0z m0-86l43 0l0-42l-43 0z m0-85l43 0l0-43l-43 0z"/>
<glyph unicode="&#100;" d="M309 192l-213 0c-6 0-11-5-11-11c0-6 5-10 11-10l213 0c6 0 11 4 11 10c0 6-5 11-11 11z m-213 85c53 0 96 43 96 96c0 53-43 96-96 96c-53 0-96-43-96-96c0-53 43-96 96-96z m0 171c41 0 75-33 75-75c0-41-34-74-75-74c-41 0-75 33-75 74c0 42 34 75 75 75z m181-171c36 0 64 29 64 64c0 36-28 64-64 64c-35 0-64-28-64-64c0-35 29-64 64-64z m0 107c24 0 43-19 43-43c0-23-19-42-43-42c-23 0-42 19-42 42c0 24 19 43 42 43z m224-160c-6 5-15 5-23 2l-94-39l0 37c0 18-14 32-32 32l-299 0c-17 0-32-14-32-32l0-171c0-17 15-32 32-32l299 0c18 0 32 15 32 32l0 38l94-39c3-2 7-3 11-3c4 0 9 2 12 4c7 5 11 12 11 22l0 128c0 9-4 17-11 21z m-149-181l-299 0c-6 0-10 4-10 10l0 171c0 6 4 11 10 11l299 0c6 0 11-5 11-11l0-53c0 0 0 0 0 0l0-64c0 0 0 0 0 0l0-54c0-6-5-10-11-10z m139 32c0-3-1-4-1-4c-1 0-2 0-4 0l-102 43l0 50l102 42c2 1 3 1 4 0c0 0 1-1 1-3z"/>
<glyph unicode="&#101;" d="M448 405l-384 0c-24 0-43-19-43-42l0-235c0-24 19-43 43-43l384 0c24 0 43 19 43 43l0 235c0 23-19 42-43 42z m0-21c1 0 3 0 4 0l-196-157l-196 157c1 0 3 0 4 0z m21-256c0-12-9-21-21-21l-384 0c-12 0-21 9-21 21l0 235c0 2 0 4 1 6l205-164c2-2 5-2 7-2c2 0 5 0 7 2l205 164c1-2 1-4 1-6z"/>
<glyph unicode="&#102;" d="M256 475c-141 0-256-95-256-211c0-55 25-107 71-146l-51-103c-3-4-2-9 1-12c2-2 5-3 8-3c2 0 3 0 5 1l137 64c27-8 56-12 85-12c141 0 256 95 256 211c0 116-115 211-256 211z m0-401c-29 0-56 4-83 12c-2 1-5 1-7 0l-114-53l42 83c2 5 1 10-3 13c-45 36-70 84-70 135c0 104 106 189 235 189c129 0 235-85 235-189c0-105-106-190-235-190z m32 91c0-11-10-21-21-21c-12 0-22 10-22 21c0 12 10 22 22 22c11 0 21-10 21-22z m-21 212c-42 0-75-34-75-76c0-6 5-10 11-10c6 0 10 4 10 10c0 30 25 55 54 55c29 0 53-24 53-53c0-29-24-52-53-52c-6 0-11-5-11-11l0-27c0-6 5-10 11-10c6 0 10 4 10 10l0 17c36 5 64 36 64 73c0 41-33 74-74 74z"/>
<glyph unicode="&#103;" d="M503 512l-494 0c-5 0-9-4-9-9l0-494c0-5 4-9 9-9l494 0c5 0 9 4 9 9l0 494c0 5-4 9-9 9z m-8-495l-478 0l0 478l478 0z m-367 376l102 0c5 0 9 3 9 8c0 5-4 9-9 9l-102 0c-5 0-9-4-9-9c0-5 4-8 9-8z m-68-52l170 0c5 0 9 4 9 9c0 5-4 8-9 8l-170 0c-5 0-9-3-9-8c0-5 4-9 9-9z m0-51l170 0c5 0 9 4 9 9c0 4-4 8-9 8l-170 0c-5 0-9-4-9-8c0-5 4-9 9-9z m0-102l170 0c5 0 9 4 9 8c0 5-4 9-9 9l-170 0c-5 0-9-4-9-9c0-4 4-8 9-8z m0-51l170 0c5 0 9 3 9 8c0 5-4 9-9 9l-170 0c-5 0-9-4-9-9c0-5 4-8 9-8z m222 51l170 0c5 0 9 4 9 8c0 5-4 9-9 9l-170 0c-5 0-9-4-9-9c0-4 4-8 9-8z m0 102l170 0c5 0 9 4 9 9c0 4-4 8-9 8l-170 0c-5 0-9-4-9-8c0-5 4-9 9-9z m-222-51l170 0c5 0 9 4 9 8c0 5-4 9-9 9l-170 0c-5 0-9-4-9-9c0-4 4-8 9-8z m222 0l170 0c5 0 9 4 9 8c0 5-4 9-9 9l-170 0c-5 0-9-4-9-9c0-4 4-8 9-8z m0 102l170 0c5 0 9 4 9 9c0 5-4 8-9 8l-170 0c-5 0-9-3-9-8c0-5 4-9 9-9z m0 52l170 0c5 0 9 3 9 8c0 5-4 9-9 9l-170 0c-5 0-9-4-9-9c0-5 4-8 9-8z m0-256l102 0c5 0 9 3 9 8c0 5-4 9-9 9l-102 0c-5 0-9-4-9-9c0-5 4-8 9-8z"/>
<glyph unicode="&#104;" d="M503 495l-494 0c-5 0-9-4-9-9l0-119c0-5 4-9 9-9l494 0c5 0 9 4 9 9l0 119c0 5-4 9-9 9z m-8-120l-478 0l0 103l478 0z m8-51l-494 0c-5 0-9-4-9-8l0-120c0-4 4-8 9-8l494 0c5 0 9 4 9 8l0 120c0 4-4 8-9 8z m-8-119l-478 0l0 102l478 0z m8-51l-494 0c-5 0-9-4-9-9l0-119c0-5 4-9 9-9l494 0c5 0 9 4 9 9l0 119c0 5-4 9-9 9z m-8-120l-478 0l0 103l478 0z"/>
<glyph unicode="&#105;" d="M256 512c-4 0-7 0-11 0c-140-6-245-114-245-251c0-144 115-261 255-261c142 0 257 115 257 257c0 141-115 255-256 255z m207-137l-109 0c-14 42-36 81-67 118c75-10 140-55 176-118z m-200 120c34-38 58-78 74-120l-161 0c15 42 39 83 73 120c3 0 5 0 7 0c2 0 5 0 7 0z m92-239l-198 0c-1 35 3 69 13 102l172 0c10-33 15-67 13-102z m-25-119l-147 0c-14 34-22 68-25 102l196 0c-3-34-11-68-24-102z m40 102l124 0c-3-37-14-72-32-102l-115 0c13 34 21 68 23 102z m-352 0l124 0c3-34 10-68 23-102l-114 0c-18 30-30 65-33 102z m207 254c-31-37-53-76-67-118l-112 0c36 64 101 109 179 118z m-187-135l115 0c-9-33-13-67-12-102l-124 0c0 2 0 4 0 5c0 35 7 68 21 97z m24-239l110 0c13-33 32-67 56-100c-69 8-128 46-166 100z m188-102c-25 34-45 68-60 102l133 0c-15-34-35-68-61-102c-2 0-4 0-7 0c-2 0-3 0-5 0z m35 2c23 33 42 67 56 100l111 0c-39-54-98-92-167-100z m210 237l-124 0c2 35-2 69-12 102l113 0c15-30 23-65 23-101c0 0 0-1 0-1z"/>
<glyph unicode="&#106;" d="M444 512c-38 0-69-31-69-68c0-27 16-51 39-62l-42-127c-5 1-9 1-14 1c-20 0-38-9-50-22l-60 41c5 10 8 21 8 32c0 38-31 68-68 68c-38 0-69-30-69-68c0-23 13-44 31-57l-59-117c-7 2-15 4-23 4c-37 0-68-31-68-69c0-37 31-68 68-68c38 0 69 31 69 68c0 24-13 45-31 57l59 118c7-3 15-4 23-4c20 0 38 9 50 22l60-41c-5-10-8-21-8-32c0-38 31-69 68-69c38 0 69 31 69 69c0 27-16 50-39 61l42 128c5-1 9-2 14-2c37 0 68 31 68 69c0 37-31 68-68 68z m-325-444c0-28-22-51-51-51c-28 0-51 23-51 51c0 29 23 51 51 51c29 0 51-22 51-51z m69 188c-29 0-51 23-51 51c0 28 22 51 51 51c28 0 51-23 51-51c0-28-23-51-51-51z m222-68c0-29-23-51-52-51c-28 0-51 22-51 51c0 28 23 51 51 51c29 0 52-23 52-51z m34 205c-29 0-51 22-51 51c0 28 22 51 51 51c28 0 51-23 51-51c0-29-23-51-51-51z"/>
<glyph unicode="&#107;" d="M441 475c-1 2-4 3-6 3l-179 0l0 25c0 5-4 9-9 9c-4 0-8-4-8-9l0-25l-179 0c-5 0-9-4-9-9l0-136c0-5 4-9 9-9l179 0l0-34l-162 0c-2 0-5-1-6-2l-68-69c-4-3-4-8 0-12l68-68c1-2 4-2 6-2l162 0l0-128c0-5 4-9 8-9c5 0 9 4 9 9l0 128l196 0c5 0 9 3 9 8l0 137c0 4-4 8-9 8l-196 0l0 34l179 0c2 0 5 1 6 3l69 68c3 3 3 9 0 12z m3-321l-364 0l-59 59l59 60l364 0z m-12 187l-364 0l0 120l364 0l59-60z"/>
<glyph unicode="&#108;" d="M247 17c137 0 248 111 248 248c0 136-111 247-248 247c-136 0-247-111-247-247c0-137 111-248 247-248z m0 478c128 0 231-103 231-230c0-128-103-231-231-231c-127 0-230 103-230 231c0 127 103 230 230 230z m-5-373c2-2 4-3 7-3c0 0 0 0 0 0c2 0 4 1 6 3l110 120c3 3 3 9-1 12c-3 3-9 3-12-1l-96-104l0 262c0 4-4 8-9 8c-4 0-8-4-8-8l0-260l-96 102c-3 4-9 4-12 1c-4-4-4-9-1-12z"/>
<glyph unicode="&#109;" d="M247 17c137 0 248 111 248 248c0 136-111 247-248 247c-136 0-247-111-247-247c0-137 111-248 247-248z m0 478c128 0 231-103 231-230c0-128-103-231-231-231c-127 0-230 103-230 231c0 127 103 230 230 230z m-93-333c2 0 4 1 6 3l87 87l88-87c2-2 4-3 6-3c3 0 5 1 6 3c4 3 4 8 0 12l-87 88l79 79c3 3 3 9 0 12c-4 3-9 3-12 0l-80-79l-79 79c-3 3-9 3-12 0c-3-3-3-9 0-12l79-79l-87-88c-4-4-4-9 0-12c1-2 3-3 6-3z"/>
<glyph unicode="&#110;" d="M486 480c-119 0-211-25-239-61c-27 36-119 61-238 61c-5 0-9-4-9-9l0-355c0-5 4-8 9-8c137 0 230-35 230-67c0-5 4-9 8-9c5 0 9 4 9 9c0 32 93 67 230 67c5 0 9 3 9 8l0 355c0 5-4 9-9 9z m-469-355l0 338c133-2 222-36 222-67l0-323c-34 30-117 51-222 52z m461 0c-105-1-188-22-222-52l0 323c0 31 89 65 222 67z m-281 231c-36 13-87 23-143 27c-4 0-8-3-9-8c0-5 4-9 8-9c54-4 103-13 138-26c1-1 2-1 3-1c3 0 6 2 8 6c1 4-1 9-5 11z m0-65c-36 14-87 24-143 27c-4 1-8-3-9-8c0-4 4-8 8-9c54-3 103-13 138-26c1 0 2 0 3 0c3 0 6 2 8 5c1 4-1 9-5 11z m104 48c1 0 2 0 3 1c35 13 84 22 138 26c4 0 8 4 8 9c-1 5-5 8-9 8c-56-4-107-14-143-27c-4-2-6-7-5-11c2-4 5-6 8-6z m0-64c1 0 2 0 3 0c35 13 84 23 138 26c4 1 8 5 8 9c-1 5-5 9-9 8c-56-3-107-13-143-27c-4-2-6-7-5-11c2-3 5-5 8-5z m-104-48c-36 13-87 23-143 27c-4 0-8-3-9-8c0-5 4-9 8-9c54-4 103-13 138-26c1-1 2-1 3-1c3 0 6 2 8 6c1 4-1 9-5 11z m0-65c-36 14-87 23-143 27c-4 1-8-3-9-8c0-4 4-9 8-9c54-3 103-13 138-26c1 0 2-1 3-1c3 0 6 3 8 6c1 4-1 9-5 11z m104 48c1 0 2 0 3 1c35 13 84 22 138 26c4 0 8 4 8 9c-1 5-5 8-9 8c-56-4-107-14-143-27c-4-2-6-7-5-11c2-4 5-6 8-6z m0-65c1 0 2 1 3 1c35 13 84 23 138 26c4 0 8 5 8 9c-1 5-5 9-9 8c-56-4-107-13-143-27c-4-2-6-7-5-11c2-3 5-6 8-6z"/>
<glyph unicode="&#111;" d="M179 239l-119 0c-5 0-9-4-9-9l0-85c0-5 4-8 9-8l119 0c5 0 9 3 9 8l0 85c0 5-4 9-9 9z m-8-85l-103 0l0 68l103 0z m145 290l-120 0c-4 0-8-4-8-9l0-85c0-5 4-9 8-9l120 0c4 0 8 4 8 9l0 85c0 5-4 9-8 9z m-9-86l-102 0l0 69l102 0z m188-243l0 124c0 19-15 34-34 34l-86 0l0 17c0 13-6 24-17 30l0 124c0 19-15 34-34 34l-136 0c-19 0-34-15-34-34l0-124c-11-6-17-17-17-30l0-17l-86 0c-19 0-34-15-34-34l0-124c-10-6-17-17-17-30l0-42c0-5 4-9 9-9l221 0c5 0 9 4 9 9l0 42c0 13-7 24-17 30l0 124l68 0l0-124c-10-6-17-17-17-30l0-42c0-5 4-9 9-9l221 0c5 0 9 4 9 9l0 42c0 13-7 24-17 30z m-324 329c0 9 7 17 17 17l136 0c10 0 17-8 17-17l0-120l-170 0z m51-393l-205 0l0 34c0 10 8 17 17 17l171 0c9 0 17-7 17-17z m-188 68l0 120c0 9 8 17 17 17l137 0c9 0 17-8 17-17l0-120z m183 137c-6 10-17 17-29 17l-34 0l0 17c0 10 7 17 17 17l170 0c10 0 17-7 17-17l0-17l-34 0c-12 0-23-7-29-17z m90-17c0 9 8 17 17 17l137 0c9 0 17-8 17-17l0-120l-171 0z m188-188l-205 0l0 34c0 10 8 17 17 17l171 0c9 0 17-7 17-17z m-43 188l-119 0c-5 0-9-4-9-9l0-85c0-5 4-8 9-8l119 0c5 0 9 3 9 8l0 85c0 5-4 9-9 9z m-8-85l-103 0l0 68l103 0z"/>
<glyph unicode="&#112;" d="M494 202l-68 154c0 1-1 2-2 2l-33 33l-30 84c-1 1-1 2-2 3c-20 19-64 19-83 0c-2-2-3-4-3-6l0-86c0-4 4-8 9-8c4 0 8 4 8 8l0 82c14 10 43 10 56-1l30-83c0-2 1-3 2-4l33-33l49-109c-19 13-43 20-67 20c-44 0-82-23-103-58l0 123c27-6 43-18 43-30c0-5 4-9 8-9c5 0 9 4 9 9c0 29-40 51-94 51c-54 0-94-22-94-51c0-5 4-9 9-9c4 0 8 4 8 9c0 12 16 24 43 30l0-123c-21 35-59 58-103 58c-24 0-48-7-67-20l49 109l33 33c1 1 1 2 2 3l33 84c13 11 39 11 53 1l0-82c0-4 4-8 8-8c5 0 9 4 9 8l0 86c0 2-1 4-3 6c-19 19-60 19-80 0c-1-1-1-2-2-3l-33-84l-33-33c-1 0-2-1-2-2l-68-154c0 0 0-1 0-1c-12-18-18-39-18-62c0-66 54-119 119-119c66 0 120 53 120 119l0 187c5 0 11 1 17 1c6 0 12-1 17-1l0-187c0-66 54-119 120-119c65 0 119 53 119 119c0 23-6 44-18 62c0 0 0 1 0 1z m-375-165c-56 0-102 46-102 102c0 56 46 102 102 102c57 0 103-46 103-102c0-56-46-102-103-102z m274 0c-57 0-103 46-103 102c0 56 46 102 103 102c56 0 102-46 102-102c0-56-46-102-102-102z m-277 172c-40 0-73-33-73-73c0-5 4-9 9-9c4 0 8 4 8 9c0 31 25 56 56 56c5 0 9 4 9 8c0 5-4 9-9 9z m280 0c-40 0-73-33-73-73c0-5 4-9 8-9c5 0 9 4 9 9c0 31 25 56 56 56c5 0 8 4 8 8c0 5-3 9-8 9z"/>
<glyph unicode="&#113;" d="M181 254c-40 0-73-33-73-73c0-41 33-73 73-73c40 0 73 32 73 73c0 40-33 73-73 73z m0-129c-31 0-56 25-56 56c0 31 25 56 56 56c31 0 56-25 56-56c0-31-25-56-56-56z m226 322c-23 0-41-18-41-40c0-23 18-41 41-41c22 0 41 18 41 41c0 22-19 40-41 40z m0-64c-13 0-24 11-24 24c0 13 11 23 24 23c13 0 24-10 24-23c0-13-11-24-24-24z m-51-244l-29 17c2 8 2 16 2 25c0 8 0 16-2 25l29 16c4 2 5 8 3 12l-43 74c-1 2-3 4-5 4c-3 1-5 1-7-1l-28-16c-12 11-25 19-42 25l0 30c0 5-4 9-9 9l-86 0c-4 0-8-4-8-9l0-30c-16-5-30-13-44-25l-29 16c-4 3-9 1-12-3l-43-74c-1-2-1-5-1-7c1-2 2-4 4-5l29-16c-2-9-2-17-2-25c0-9 0-17 2-25l-29-17c-4-2-5-7-3-11l43-75c2-4 7-5 12-3l29 17c14-12 28-20 44-26l0-32c0-5 4-9 8-9l87 0c4 0 8 4 8 9l0 32c17 6 30 15 42 25l29-16c2-1 4-1 6-1c2 1 4 2 5 4l43 75c2 4 1 9-3 11z m-50-70l-26 15c-4 2-8 2-10-1c-15-13-27-22-47-27c-4-1-6-5-6-8l0-31l-69 0l0 31c0 3-3 7-6 8c-18 5-33 13-48 27c-3 3-7 3-10 1l-27-15l-35 60l26 15c4 2 5 6 5 9c-2 9-3 18-3 28c0 9 1 18 3 27c0 4-1 7-4 9l-27 16l35 59l27-15c3-2 7-1 10 1c15 14 30 22 48 28c3 1 6 4 6 8l0 28l69 0l0-28c0-4 2-7 6-8c20-6 32-15 47-28c2-2 6-3 10-1l25 15l35-59l-27-16c-3-2-4-5-4-9c2-9 3-18 3-27c0-10-1-19-3-28c0-3 1-7 5-9l26-15z m200 315l-16 10c0 4 1 8 1 13c0 4-1 8-1 13l16 9c4 2 5 8 3 12l-22 37c-1 2-3 3-5 4c-2 1-4 0-6-1l-16-9c-6 5-14 10-22 13l0 18c0 5-3 9-8 9l-43 0c-5 0-9-4-9-9l0-18c-8-4-16-8-23-13l-17 9c-4 2-9 1-11-3l-22-37c-1-2-1-5-1-7c1-2 2-4 4-5l16-9c-1-5-1-9-1-13c0-5 0-9 1-13l-16-10c-2-1-3-3-4-5c-1-2 0-4 1-6l21-38c3-4 8-5 12-3l17 10c7-6 15-10 23-14l0-18c0-5 4-9 9-9l43 0c5 0 8 4 8 9l0 18c8 4 16 8 22 13l16-9c2-1 4-1 7-1c2 1 4 2 5 4l21 38c2 4 1 9-3 11z m-29-33l-13 8c-4 2-8 2-11-1c-7-7-16-12-26-15c-3-2-6-5-6-9l0-16l-26 0l0 16c0 4-2 7-6 9c-10 3-20 9-27 15c-3 3-7 3-10 1l-15-8l-13 23l14 8c3 2 5 6 4 9c-1 5-2 11-2 16c0 5 1 10 2 15c1 4-1 8-4 9l-14 8l13 23l15-8c3-2 7-1 10 1c7 7 17 12 27 16c4 1 6 4 6 8l0 16l26 0l0-16c0-4 3-7 6-8c10-3 19-9 26-16c3-3 7-3 11-1l13 8l13-22l-14-9c-3-1-5-5-4-9c1-5 2-10 2-15c0-6-1-11-2-16c-1-3 1-7 4-9l14-8z"/>
<glyph unicode="&#114;" d="M503 512l-494 0c-5 0-9-4-9-9l0-494c0-5 4-9 9-9l494 0c5 0 9 4 9 9l0 494c0 5-4 9-9 9z m-8-495l-478 0l0 478l478 0z m-358 358l93 0c5 0 9 4 9 9c0 5-4 9-9 9l-93 0c-5 0-9-4-9-9c0-5 4-9 9-9z m-77-51l170 0c5 0 9 4 9 9c0 5-4 8-9 8l-170 0c-5 0-9-3-9-8c0-5 4-9 9-9z m0-51l170 0c5 0 9 4 9 9c0 4-4 8-9 8l-170 0c-5 0-9-4-9-8c0-5 4-9 9-9z m0-51l384 0c4 0 8 4 8 8c0 5-4 9-8 9l-384 0c-5 0-9-4-9-9c0-4 4-8 9-8z m0-51l384 0c4 0 8 3 8 8c0 5-4 9-8 9l-384 0c-5 0-9-4-9-9c0-5 4-8 9-8z m0-52l273 0c5 0 8 4 8 9c0 5-3 9-8 9l-273 0c-5 0-9-4-9-9c0-5 4-9 9-9z m222 154l153 0c5 0 9 4 9 9l0 153c0 5-4 9-9 9l-153 0c-5 0-9-4-9-9l0-153c0-5 4-9 9-9z m8 154l137 0l0-137l-137 0z"/>
<glyph unicode="&#115;" d="M309 491l-128 0c-6 0-10-5-10-11l0-128c0-6 4-11 10-11l128 0c6 0 11 5 11 11l0 128c0 6-5 11-11 11z m-10-128l-107 0l0 106l107 0z m-160 128l-128 0c-6 0-11-5-11-11l0-128c0-6 5-11 11-11l128 0c6 0 10 5 10 11l0 128c0 6-4 11-10 11z m-11-128l-107 0l0 106l107 0z m352 128l-128 0c-6 0-11-5-11-11l0-128c0-6 5-11 11-11l128 0c6 0 11 5 11 11l0 128c0 6-5 11-11 11z m-11-128l-106 0l0 106l106 0z m-160-43l-128 0c-6 0-10-5-10-11l0-128c0-6 4-10 10-10l128 0c6 0 11 4 11 10l0 128c0 6-5 11-11 11z m-10-128l-107 0l0 107l107 0z m-160 128l-128 0c-6 0-11-5-11-11l0-128c0-6 5-10 11-10l128 0c6 0 10 4 10 10l0 128c0 6-4 11-10 11z m-11-128l-107 0l0 107l107 0z m352 128l-128 0c-6 0-11-5-11-11l0-128c0-6 5-10 11-10l128 0c6 0 11 4 11 10l0 128c0 6-5 11-11 11z m-11-128l-106 0l0 107l106 0z m-160-43l-128 0c-6 0-10-4-10-10l0-128c0-6 4-11 10-11l128 0c6 0 11 5 11 11l0 128c0 6-5 10-11 10z m-10-128l-107 0l0 107l107 0z m-160 128l-128 0c-6 0-11-4-11-10l0-128c0-6 5-11 11-11l128 0c6 0 10 5 10 11l0 128c0 6-4 10-10 10z m-11-128l-107 0l0 107l107 0z m352 128l-128 0c-6 0-11-4-11-10l0-128c0-6 5-11 11-11l128 0c6 0 11 5 11 11l0 128c0 6-5 10-11 10z m-11-128l-106 0l0 107l106 0z"/>
<glyph unicode="&#116;" d="M256 405c-76 0-139-62-139-138c0-61 39-114 96-132l0-18c0-6 5-10 11-10l64 0c6 0 11 4 11 10l0 18c57 18 96 71 96 132c0 76-63 138-139 138z m29-252c-4-1-8-5-8-10l0-15l-42 0l0 15c0 5-4 9-8 10c-52 14-88 60-88 114c0 64 52 117 117 117c65 0 117-53 117-117c0-54-36-100-88-114z m-18-110l-22 0c-6 0-10-5-10-11c0-6 4-11 10-11l22 0c6 0 10 5 10 11c0 6-4 11-10 11z m21 42l-64 0c-6 0-11-4-11-10c0-6 5-11 11-11l64 0c6 0 11 5 11 11c0 6-5 10-11 10z m-32 342c6 0 11 4 11 10l0 43c0 6-5 11-11 11c-6 0-11-5-11-11l0-43c0-6 5-10 11-10z m213-150l-42 0c-6 0-11-4-11-10c0-6 5-11 11-11l42 0c6 0 11 5 11 11c0 6-5 10-11 10z m-384 0l-42 0c-6 0-11-4-11-10c0-6 5-11 11-11l42 0c6 0 11 5 11 11c0 6-5 10-11 10z m43 103c2-2 5-3 7-3c3 0 6 1 8 3c4 4 4 11 0 15l-45 45c-5 4-11 4-16 0c-4-4-4-11 0-15z m249-3c2 0 5 1 7 3l45 45c5 4 5 11 0 15c-4 4-10 4-15 0l-45-45c-4-4-4-11 0-15c2-2 5-3 8-3z"/>
<glyph unicode="&#117;" d="M507 264l-495 247c-2 1-5 1-8 0c-2-2-4-5-4-8l0-494c0-3 2-6 4-8c1-1 3-1 5-1c1 0 2 0 3 1l495 247c3 2 5 5 5 8c0 3-2 6-5 8z m-490-242l0 468l467-234z"/>
<glyph unicode="&#118;" d="M388 472l-35 0l0 27c0 7-6 13-14 13c-7 0-13-6-13-13l0-27l-58 0l0 27c0 7-6 13-14 13c-7 0-13-6-13-13l0-27l-58 0l0 27c0 7-6 13-13 13c-8 0-14-6-14-13l0-27l-34 0c-30 0-55-25-55-55l0-364c0-30 25-55 55-55l106 0l0 0c1 0 2 0 3 1l10 11c1 0 1 1 1 2c0 0 0 1-1 2l-10 10c-1 1-2 1-3 1l-106 0c-15 0-28 13-28 28l0 364c0 15 13 28 28 28l34 0l0-24c0-7 6-13 14-13c7 0 13 6 13 13l0 24l58 0l0-24c0-7 6-13 14-13c7 0 13 6 13 13l0 24l58 0l0-24c0-7 6-13 13-13c8 0 14 6 14 13l0 24l35 0c15 0 28-13 28-28l0-364c0-15-13-28-28-28l-106 0c-1 0-2 0-3-1l-10-10c-1-1-1-2-1-2c0-1 0-2 1-2l10-11c1-1 2-1 3-1l0 0l0 0l106 0c30 0 55 25 55 55l0 364c0 30-25 55-55 55z m-232-173l203 0c7 0 14 6 14 14c0 7-7 13-14 13l-203 0c-7 0-13-6-13-13c0-8 6-14 13-14z m0-73l203 0c7 0 14 6 14 13c0 8-7 14-14 14l-203 0c-7 0-13-6-13-14c0-7 6-13 13-13z m0-74l203 0c7 0 14 6 14 14c0 7-7 13-14 13l-203 0c-7 0-13-6-13-13c0-8 6-14 13-14z"/>
<glyph unicode="&#119;" d="M513 158l-1 16c0 1 0 2 0 2l-25 104c0 1 0 2-1 2l-14 9c-1 1-2 1-2 1c-1-1-2-1-2-2l-8-14c-1-1-1-2-1-3l25-102l1-14l0-109c0-1-1-1-2-1l-136 0c0 0-1 0-1 1l0 175c0 8-6 15-14 15l-15 0l-1 0c-1 0-1 0-1 1l0 13c0 8-7 14-14 14l-89 0c-7 0-14-6-14-14l0-13c0-1 0-2-1-2l-1 0l-15 0c-8 0-14-6-14-14l0-176c0 0-1-1-1-1l-136 0c-1 0-2 1-2 1l0 109l1 15l56 235l36 0c8 0 14 6 14 14l0 49l64 0l0-49c0-8 6-14 14-14l88 0c7 0 14 7 14 15l0 48l63 0l0-48c0-8 7-15 14-15l36 0l18-75c0-1 0-2 1-2l14-9c1-1 1-1 2 0c1 0 1 0 2 1l8 14c1 1 1 2 0 3l-20 86c-1 6-7 11-14 11l-32 0l0 49c0 7-7 14-15 14l-91 0c-8 0-15-7-15-14l0-50l-59 0l0 50c0 7-6 14-14 14l-92 0c-8 0-14-7-14-14l0-50l-33 0c-7 0-13-4-14-11l-59-247c0-1 0-2 0-2l-1-17l0-110c0-16 13-29 30-29l136 0c16 0 29 13 29 29l0 162l2 0c16 0 29 13 30 29l59 0c1-16 14-29 31-29l0 0l1-161c0-17 13-30 29-30l136 0c17 0 30 13 30 30z"/>
<glyph unicode="&#120;" d="M421 467l-297 0c-52 0-94-41-94-93l-17 0c-7 0-13-6-13-13c0-8 6-14 13-14l16 0l0-172c0-52 43-94 94-94l0-22c0-7 6-13 14-13c7 0 13 6 13 13l0 22c0 0 96 0 96 0c1 0 1 0 2 1l11 10c0 1 0 2 0 2c0 1 0 2 0 2l-11 11c-1 1-2 1-3 1l-121 0c-37 0-68 30-68 67l0 198c0 37 31 67 68 67l297 0c37 0 67-30 67-67l0-198c0-37-30-67-67-67l-121 0c-1 0-2 0-3-1l-11-11c0 0 0-1 0-2c0 0 0-1 0-2l11-10c1-1 1-1 2-1l95 0l0-22c0-7 6-13 14-13c7 0 13 6 13 13l0 22c52 0 94 42 94 94l0 198c0 52-42 94-94 94z"/>
<glyph unicode="&#121;" d="M116 326c51 0 93 42 93 93c0 51-42 93-93 93c-51 0-93-42-93-93c0-51 42-93 93-93z m0 156c35 0 63-28 63-63c0-35-28-63-63-63c-35 0-64 28-64 63c0 35 29 63 64 63z m217-156c51 0 93 42 93 93c0 51-42 93-93 93c-52 0-93-42-93-93c0-51 41-93 93-93z m0 156c35 0 63-28 63-63c0-35-28-63-63-63c-35 0-64 28-64 63c0 35 29 63 64 63z m157-215c-5 2-12 0-16-4l-40-46l0 39c0 27-22 48-48 48l-324 0c-26 0-47-21-47-48l0-210c0-26 21-48 47-48l129 0c1 0 2 0 3 1l12 12c0 1 0 1 0 2c0 1 0 2 0 2l-12 12c-1 1-2 1-3 1l-129 0c-10 0-18 8-18 18l0 210c0 10 8 18 18 18l324 0c10 0 18-8 18-18l0-78c0-7 4-12 10-14c6-2 12-1 16 4l41 46l0-125l-41 45c-4 5-10 7-16 5c-6-3-10-8-10-14l0-79c0-10-8-18-18-18l-135 0c-2 0-2 0-3-1l-12-12c-1 0-1-1-1-2c0-1 0-1 1-2l12-12c1-1 1-1 3-1l135 0c26 0 48 22 48 48l0 40l40-46c4-5 11-7 16-4c6 2 10 7 10 13l0 204c0 6-4 12-10 14z"/>
<glyph unicode="&#122;" d="M484 440l16 56c2 5 0 11-5 14c-4 3-10 3-15-1l-81-61c-2-2-4-5-5-8l-1-12c-40 29-89 47-142 47c-132 0-238-107-238-238c0-44 12-85 33-121l4-6c0 0 0 0 0-1l0 0l0 0c1 0 1-1 2-1l14-3c0 0 1 0 2 0c0 1 1 1 1 2l3 14c0 1 0 2-1 3l-2 4c-19 32-31 69-31 109c0 117 96 212 213 212c52 0 100-19 137-51l-2-17l-19-17c-31 28-72 46-116 46c-96 0-173-78-173-173c0-95 77-172 173-172c95 0 172 77 172 172c0 41-14 79-38 109l21 20c0 0 0 0 0 0l8 7c30-37 49-84 49-136c0-117-95-212-212-212c-53 0-102 19-139 52c-3 2-10 8-10 8c-1 1-2 1-3 1l-14-1c-1 0-2 0-2-1c0 0-1-1-1-2l2-14c0-1 0-2 1-2l10-9c42-36 96-58 156-58c131 0 237 107 237 238c0 58-21 112-55 153l48 44c1 2 3 4 3 6z m-86-203c0-81-66-147-147-147c-81 0-147 66-147 147c0 81 66 147 147 147c37 0 71-14 97-37l-60-56c-11 8-23 12-37 12c-37 0-66-30-66-66c0-36 29-66 66-66c36 0 66 30 66 66c0 13-4 26-11 36l60 55c20-25 32-56 32-91z m-144 5c2-3 6-4 9-4c3 0 6 1 9 3l15 14c2-5 4-11 4-18c0-22-18-40-40-40c-23 0-41 18-41 40c0 22 18 40 41 40c6 0 12-1 17-4l-14-13c-5-4-5-13 0-18z m207 209l-45-42l3 22l46 35z"/>
<glyph unicode="&#65;" d="M261 357c-61 0-111-50-111-112c0-45 27-85 68-103c14-5 29-8 43-8c15 0 30 3 43 8c42 18 69 58 69 103c0 62-50 112-112 112z m34-192c-22-9-46-9-67 0c-33 14-53 45-53 80c0 48 38 87 86 87c48 0 87-39 87-87c0-35-21-66-53-80z m207 64c-1 0-1 0-2 0c-1 0-1 0-2 0l-9-10c-1-1-1-2-1-3l0-101c0-7-6-13-13-13l-438 0c-7 0-12 6-12 13l0 256c0 7 5 13 12 13l138 0c3 0 6 1 9 3l22 22l103 0l25-22c2-2 5-3 8-3l133 0c7 0 13-6 13-13l0-103c0-1 0-2 1-3l9-10c1 0 1 0 2 0c1 0 1 0 2 0l10 10c0 1 1 2 1 3l0 103c0 21-17 38-38 38l-128 0l-24 21c-3 2-6 4-9 4l-112 0c-4 0-7-2-9-4l-23-21l-133 0c-20 0-37-17-37-38l0-256c0-21 17-38 37-38l438 0c21 0 38 17 38 38l0 101c0 1-1 2-1 3z"/>
<glyph unicode="&#66;" d="M443 512l-162 0c-1 0-2 0-3-1l-9-10c-1 0-1-1-1-1c0-1 0-1 1-2l9-10c1 0 2 0 3 0l162 0c21 0 38-17 38-38l0-276c0-21-17-38-38-38l-241 0c-3 0-6-1-8-3l-89-89l0 80c0 7-5 12-12 12l-23 0c-21 0-37 17-37 38l0 276c0 21 16 38 37 38l161 0c2 0 2 0 3 0l10 10c0 1 0 1 0 2c0 0 0 1 0 1l-10 10c-1 1-1 1-3 1l-161 0c-34 0-62-28-62-62l0-276c0-34 28-62 62-62l11 0l0-97c0-5 3-9 8-11c1-1 3-1 4-1c3 0 7 1 9 3l105 106l236 0c35 0 63 28 63 62l0 276c0 34-28 62-63 62z"/>
<glyph unicode="&#67;" d="M336 315c0 1-1 1-1 1c-1 0-1 0-1-1l-8-8c-1 0-1-1-1-2l0-124c-16 5-32 7-49 7c-22 0-40-4-51-7l0 292c0 11 8 19 18 19l64 0c10 0 18-8 18-19l0-129c0-1 0-1 1-2l8-8c0 0 0 0 1 0c0 0 1 0 1 0l8 8c1 1 1 1 1 2l0 129c0 22-17 39-38 39l-64 0c-21 0-38-17-38-39l0-14c-22-2-41-21-41-42l0-93c0-6 5-10 10-10c5 0 10 4 10 10l0 93c0 10 10 20 21 22l1-306c0-1 0-3 1-5c2-3 40-67 55-93l0-23l0 0c0 0 0-1 1-1l11-11c0-1 2-1 3 0l10 11c1 0 1 1 1 1l0 0l0 23c12 20 42 71 52 88c2 4 3 6 3 6c1 2 2 4 2 6l0 170c0 1 0 2-1 2z m-11-168l0-10c0-1-1-2-2-4c-10-18-37-64-48-81c-8 13-42 71-50 84l0 25c9 3 28 7 51 7c17 0 34-2 49-7z"/>
<glyph unicode="&#68;" d="M507 412l-339 99c-3 1-7 1-10-1c-3-1-5-4-6-7l-28-96l-111 0c-7 0-13-6-13-13l0-384c0-8 6-13 13-13l151 0c1 0 2 0 2 0l11 11c0 0 1 1 1 2c0 0-1 1-1 1l-11 11c0 0-1 1-2 1l-138 0l0 52l327 0l0-52l-136 0c-2 0-2-1-3-1l-10-11c-1 0-1-1-1-1c0-1 0-2 1-2l10-11c1 0 1 0 3 0l149 0c7 0 13 5 13 13l0 11l12-3c1 0 3-1 4-1c5 0 11 4 12 10l22 75c0 0 0 0 0 0c0 0 0 0 0 0l87 294c2 7-2 14-9 16z m-154-274l0-37l-327 0l0 280l327 0l0-243z m33-91l-7 2l0 55l22-7z m22 75l-29 9l0 263c0 7-6 13-13 13l-215 0l22 76l314-92z"/>
<glyph unicode="&#69;" d="M401 198l-113 131c-1 0-1 1-2 1l-15 1c0 0-1 0-1-1c-1 0-1-1-1-1l-1-15c0-1 0-1 1-2l93-108l-97 7c-5 1-9-1-12-5c-2-4-3-8-1-12l60-154l-28-11l-61 155c-2 5-5 8-10 8c-1 0-1 0-2 0c-4 0-7-1-10-4l-54-64l-10 340l98-113c0-1 1-1 2-1l14-1c1 0 2 0 2 0c1 1 1 1 1 2l1 14c0 1 0 2-1 3l-121 140c-3 4-9 5-14 3c-5-2-8-7-8-12l11-409c0-5 3-10 8-12c5-1 11 0 14 4l63 73l57-148c2-3 4-5 7-7c2 0 4-1 5-1c2 0 4 1 5 1l52 21c4 1 6 3 8 7c1 3 1 6 0 9l-58 147l107-7c6-1 10 2 13 7c2 4 1 10-2 14z"/>
<glyph unicode="&#70;" d="M509 132c0 0 0 0 0 0c0 0-36 34-45 44c-2 2-4 3-6 5l0 205c0 11-10 21-22 21l-359 0c-12 0-21-10-21-21l0-205c-2-2-5-3-6-5c-10-10-45-44-46-44c0 0 0 0 0 0c-3-4-6-10-3-16c4-9 17-10 27-10l209 0c1 0 2 0 2 1l8 7c0 0 1 1 1 1c0 1-1 1-1 2l-8 7c0 1-1 1-2 1l-214 0c11 10 32 31 40 38c3 3 12 5 16 5l355 0c5 0 13-2 17-5c7-7 28-28 39-38c-1 0-3-1-4-1l-210 1c0 0-1-1-2-1l-7-7c-1-1-1-1-1-2c0 0 0-1 1-1l7-7c1-1 2-1 2-1l210 0c10 0 22 1 26 10c3 6 0 12-3 16z m-70 54c-3 0-5 0-5 0l-355 0c0 0-2 0-5 0l0 200c0 1 2 3 3 3l359 0c2 0 3-2 3-3l0-200z"/>
<glyph unicode="&#71;" d="M266 57c0-7-6-13-13-13c-7 0-13 6-13 13c0 8 6 14 13 14c7 0 13-6 13-14z m164 192c-1 1-1 1-2 1c-1 0-1 0-2-1l-10-10c-1-1-1-2-1-3l0-126l-321 0l0 301l321 0l0-121c0-1 0-2 1-3l10-10c1-1 1-1 2-1c1 0 1 0 2 1l10 10c1 1 1 2 1 3l0 168c0 30-25 54-54 54l-265 0c-30 0-54-24-54-54l0-407c0-30 24-54 54-54l265 0c29 0 54 24 54 54l0 185c0 1 0 2-1 3z m-336 209c0 16 13 28 28 28l265 0c15 0 28-12 28-28l0-21l-321 0z m321-407c0-16-13-29-28-29l-265 0c-15 0-28 13-28 29l0 34l321 0z"/>
</font>
</defs>
</svg>
